<?xml version="1.0" encoding="utf-8"?>
<!-- Generator: Adobe Illustrator 25.2.3, SVG Export Plug-In . SVG Version: 6.00 Build 0)  -->
<svg version="1.1" id="Layer_1" xmlns="http://www.w3.org/2000/svg" xmlns:xlink="http://www.w3.org/1999/xlink" x="0px" y="0px"
	 viewBox="0 0 16 16" style="enable-background:new 0 0 16 16;" xml:space="preserve">
<style type="text/css">
	.st0{fill:#3D6C66;}
	.st1{fill:#C6D325;}
	.st2{fill:#63AEE6;}
</style>
<path class="st0" d="M8,16c4,0,7.3-2.9,7.9-6.9c-1,0.3-1.8,1.1-2.3,2c-0.9,1.6-2.9,2.2-4.4,1.3c0,0,0,0-0.1,0C7.6,11.5,7.1,9.5,8,8
	l0,0C7.1,6.5,5.2,5.9,3.6,6.8c0,0,0,0,0,0C2,7.7,1.5,9.7,2.4,11.2c0,0,0,0,0,0.1c0.6,0.9,0.8,2,0.6,3C4.5,15.4,6.2,16,8,16z"/>
<path class="st1" d="M7.9,1.5C6.9,1.6,5.8,1.3,5,0.6C0.9,2.2-1.1,6.9,0.5,11C1,12.3,2,13.4,3.1,14.3c0.2-1.3,0-2.2-0.6-3
	C1.5,9.8,2,7.7,3.5,6.8c0,0,0,0,0.1,0C5.1,5.9,7.1,6.4,8,8c0,0,0,0,0,0l0,0c1.8,0,3.2-1.4,3.2-3.2c0,0,0,0,0,0
	C11.3,3,9.8,1.5,7.9,1.5C8,1.5,7.9,1.5,7.9,1.5z"/>
<path class="st2" d="M9.1,12.4c1.6,0.9,3.6,0.4,4.5-1.2c0,0,0,0,0-0.1c0.5-0.9,1.3-1.7,2.3-2C16,8.8,16,8.4,16,8c0-4.4-3.6-8-8-8
	C7,0,6,0.2,5,0.6c0.8,0.7,1.8,1.1,2.9,1c1.8,0,3.3,1.4,3.3,3.2c0,0,0,0,0,0.1C11.2,6.6,9.8,8,8,8l0,0C7.1,9.5,7.6,11.5,9.1,12.4z"/>
</svg>
