<?xml version="1.0" encoding="utf-8"?>
<!-- Generator: Adobe Illustrator 25.2.3, SVG Export Plug-In . SVG Version: 6.00 Build 0)  -->
<svg version="1.1" id="Layer_1" xmlns="http://www.w3.org/2000/svg" xmlns:xlink="http://www.w3.org/1999/xlink" x="0px" y="0px"
	 viewBox="0 0 512 512" style="enable-background:new 0 0 512 512;" xml:space="preserve">
<style type="text/css">
	.st0{fill:#006C66;}
	.st1{fill:#00B1EA;}
	.st2{fill:#C6D325;}
</style>
<g>
	<path class="st0" d="M117.2478,228.3491c1.4814-6.5037,4.7393-12.1582,16.1268-12.1582c7.0939,0,10.6589,7.4431,9.1775,13.9407
		c-1.4814,6.5037-7.1661,11.0201-14.2299,11.4959C115.6038,242.4886,115.7724,234.8528,117.2478,228.3491 M38.0227,176.8315
		c5.9678,3.7998,15.0188,6.2327,17.4878-0.3914c2.469-6.6301,4.5466-12.7725-8.5452-23.612
		c-5.4559-4.5104-14.0131,0.9093-16.4761,7.5394C28.0202,166.9917,28.508,170.7795,38.0227,176.8315 M447.1976,268.8707
		c-10.3879-11.5802-13.8204-13.0374-18.078-7.3769c-4.2515,5.6426-2.9628,23.5939,2.6918,27.8454
		c5.6365,4.2515,13.6638,3.1133,17.9153-2.5352C453.9783,281.1494,451.9248,274.1338,447.1976,268.8707 M447.5167,328.3914
		c-16.1208,42.7677-46.5197,80.4349-89.0951,105.0104c-9.7736,5.6365-19.8303,10.3397-30.0556,14.2117
		c-0.0181,0.0121-18.2165,6.3411-20.1977,34.59c-1.7343,24.72,13.5555,21.2815,13.5555,21.2815
		C300.7492,509.0432,278.7209,512,256,512C114.6161,512,0,397.3846,0,256.0078c0-23.1302,3.0652-45.5439,8.8222-66.8555
		c0,0,4.661-14.9283,25.1959-1.0719c23.4857,15.8377,19.8605,34.7646,19.8605,34.7887
		c-1.7644,10.7913-2.7159,21.8536-2.7159,33.1387c0,49.157,17.4156,94.3154,46.3872,129.6581
		c6.0461,6.028,13.8024,8.5391,33.8917,1.0779c25.0875-9.322,8.6716-29.9832,8.6716-29.9832
		c-15.4885-17.7888-26.9544-39.1666-32.9703-62.7003c-3.6674-13.6638-2.9146-38.0887,12.7906-42.1716
		c13.6819-3.5589,31.519,9.6411,37.0592,30.3686c2.4028,9.0811,6.034,17.6683,10.689,25.5751
		c7.1661,11.5982,19.8785,15.6209,37.5891,9.1353c16.8976-6.1966,13.8746-22.775,6.7205-34.8068
		c-7.6599-12.8568-3.005-28.6583,9.2317-35.7281c12.2426-7.0637,27.695-2.6557,34.7709,9.5749H256
		c-7.0457,12.2426-3.1375,27.8333,9.0992,34.9031c12.2366,7.0577,28.2551,3.1856,35.5658-9.87
		c6.841-12.2185,19.6858-23.1242,33.5002-11.5862c14.4648,12.0981,17.3433,25.1175,10.8817,37.1192
		c-4.5225,7.9851-10.141,15.4221-16.8013,22.0463c-15.1874,15.1632-17.6926,37.2035-7.7744,47.2782
		c11.3875,11.5621,32.9221-0.006,42.9186-10.0024c17.3734-16.9879,30.152-37.6009,37.818-59.9121c0,0,9.6773-24.5454,30.2965-7.4792
		C448.0105,312.1743,449.7148,320.1474,447.5167,328.3914 M164.6889,403.1837c-2.7701-6.5037-18.9512-14.3623-25.4549-11.5982
		c-6.5037,2.764-9.5388,10.2794-6.7687,16.7891c2.7701,6.5037,9.87,8.238,16.7953,6.7747
		C164.4841,411.9456,167.459,409.6935,164.6889,403.1837 M296.4255,484.3654c0.3071-7.0697-2.1077-16.1267-9.0811-14.9524
		c-6.9795,1.1803-13.3387,2.4449-16.175,19.2159c-1.1803,6.9734,7.7924,11.6705,14.7599,10.4962
		C292.9026,497.9388,295.9437,495.6264,296.4255,484.3654 M307.3915,373.7606c-3.9504-5.8774-10.701-8.5451-17.0663-6.5699
		c-6.3773,1.9692-11.0323,8.774-7.4913,14.9163c5.6968,9.8639,12.2246,9.8579,18.5898,7.8887
		C307.801,388.0145,314.4974,384.3472,307.3915,373.7606 M324.5963,311.5119c5.3957-4.944,11.514-12.8448,9.9844-19.5833
		c-1.5296-6.7265-9.5328-15.1452-16.0184-10.8696c-6.0882,4.0166-11.4177,14.6634-9.8941,21.3959
		C310.1977,309.1875,318.2551,317.3351,324.5963,311.5119 M185.5971,306.0922c6.594,2.0414,17.8852-0.6805,17.4276-8.4367
		c-0.4396-7.2745-6.9915-17.2287-13.5795-19.2702c-6.6001-2.0354-17.6865,0.8672-15.8137,9.2678
		C175.2152,294.7951,179.0031,304.0448,185.5971,306.0922"/>
	<path class="st1" d="M437.4299,75.3927c0.0422,0.0481,10.6107,11.4958-11.6104,22.3293
		c-25.4609,12.4172-40.04-0.1806-40.0582-0.1927c-8.4669-6.9192-17.5661-13.2783-27.3398-18.9269
		c-42.5693-24.5755-90.3958-32.0728-135.4823-24.6478c-8.2441,2.2161-14.2962,7.678-17.8792,28.8089
		c-4.4743,26.3881,21.6249,22.4979,21.6249,22.4979c23.1545-4.5164,47.3989-3.7577,70.7883,2.7942
		c13.6638,3.6613,34.4457,16.5242,30.1279,32.1631c-3.7637,13.6336-24.106,22.4799-44.8336,16.9096
		c-9.063-2.4509-18.3128-3.6011-27.4963-3.5228c-13.6157,0.4095-23.4556,9.4002-26.6954,27.9839
		c-3.0893,17.7286,12.7786,23.4012,26.7737,23.2146c14.9646-0.1987,26.3281,11.7367,26.3281,25.8642
		c0,14.1335-11.5501,25.3162-25.6777,25.3282v0.006c-7.0457,12.2486-3.1375,27.8394,9.0992,34.9031
		c12.2366,7.0638,28.2611,3.1916,35.5658-9.8639c6.841-12.2245,19.6858-23.1242,33.5002-11.5862
		c14.4648,12.098,17.3433,25.1175,10.8817,37.1191c-4.5165,7.9851-10.141,15.4161-16.8013,22.0463
		c-15.1874,15.1632-17.6926,37.2035-7.7744,47.2842c11.3875,11.5561,32.9221-0.0121,42.9186-10.0145
		c17.3734-16.9818,30.152-37.6009,37.818-59.9062c0,0,9.6773-24.5454,30.2965-7.4792
		c16.5062,13.6698,18.2104,21.6428,16.0124,29.8868c-16.1208,42.7677-46.5197,80.4289-89.0951,105.0044
		c-9.7736,5.6486-19.8303,10.3457-30.0556,14.2178c-0.0181,0.0121-18.2165,6.3411-20.1977,34.59
		c-1.7343,24.714,13.5555,21.2815,13.5555,21.2815C431.2634,474.4779,512,374.6705,512,256.0024
		C512,185.5157,483.5221,121.6893,437.4299,75.3927 M269.8927,187.1718c-5.0645,4.6851-16.9458,5.3836-23.4676,2.1197
		c-6.9554-3.4746-3.6613-14.6152,1.4031-19.3063c5.0645-4.6851,14.9706-3.3362,21.9501-1.1382
		C277.9922,171.4304,274.9632,182.4747,269.8927,187.1718 M351.7975,169.7081c-3.5469,6.1484-11.773,5.5161-16.6628,0.9756
		c-4.8898-4.5225-5.9617-11.7066-2.8484-18.0658c5.6185-11.4477,12.1463-7.4792,17.0362-2.9507
		C354.2183,154.2017,357.4883,159.8503,351.7975,169.7081 M433.5578,106.8151c9.9965-5.209,13.5193-3.7396,18.0298,1.7103
		c4.5045,5.4498,4.9139,15.5667-1.7102,18.0296c-15.9341,5.9316-20.2158,1.0539-24.7262-4.396
		C420.6467,116.7092,427.2829,110.0851,433.5578,106.8151 M449.7268,286.8045c-4.2515,5.6486-12.2788,6.7867-17.9153,2.5353
		c-5.6547-4.2515-6.9433-22.2029-2.6918-27.8454c4.2575-5.6606,7.6901-4.2094,18.078,7.3768
		C451.9248,274.1344,453.9783,281.15,449.7268,286.8045 M437.4239,75.3867l0.006,0.006
		C437.4299,75.3927,437.4239,75.3927,437.4239,75.3867 M271.1693,488.6234c2.8364-16.765,9.1956-18.0297,16.175-19.21
		c6.9734-1.1743,9.3882,7.8827,9.0811,14.9464c-0.4818,11.261-3.5229,13.5854-10.4963,14.7658
		C278.9617,500.3,269.989,495.6028,271.1693,488.6234 M301.4237,389.9903c6.3773-1.9692,13.0737-5.6425,5.9738-16.2291
		c-3.9564-5.8774-10.7071-8.5451-17.0723-6.5759c-6.3773,1.9692-11.0323,8.774-7.4913,14.9223
		C288.5367,391.9715,295.0585,391.9655,301.4237,389.9903 M324.5963,311.5125c5.3957-4.944,11.514-12.8508,9.9844-19.5833
		c-1.5296-6.7265-9.5328-15.1452-16.0184-10.8635c-6.0882,4.0106-11.4177,14.6573-9.8881,21.3838
		C310.1977,309.182,318.2551,317.3357,324.5963,311.5125 M171.5479,83.986c-4.8417,14.7959-4.378,18.4934,2.6436,19.3485
		c7.0156,0.8551,21.914-9.2256,22.7751-16.2472c0.8612-7.0155-4.1371-13.3988-11.1587-14.2599
		C178.7923,71.9783,173.7399,77.2655,171.5479,83.986"/>
	<path class="st2" d="M349.3224,149.669c4.8959,4.5345,8.1658,10.177,2.475,20.0409c-3.547,6.1484-11.773,5.5161-16.6628,0.9756
		c-4.8898-4.5285-5.9617-11.7066-2.8484-18.0658C337.9048,141.1721,344.4326,145.1405,349.3224,149.669 M139.2339,391.5879
		c-6.5037,2.7641-9.5388,10.2794-6.7687,16.7892c2.7701,6.5037,9.87,8.2319,16.7953,6.7747
		c15.2235-3.2037,18.1984-5.4559,15.4283-11.9656C161.9187,396.6825,145.7377,388.8239,139.2339,391.5879 M451.5876,108.5272
		c-4.5105-5.4499-8.0333-6.9192-18.0298-1.7103c-6.2749,3.2699-12.9111,9.888-8.4066,15.3439
		c4.5104,5.4498,8.7921,10.3216,24.7262,4.396C456.5015,124.0939,456.092,113.9771,451.5876,108.5272 M425.8195,97.7238
		c-25.4609,12.4172-40.0401-0.1806-40.0582-0.1927c-8.4669-6.9252-17.5661-13.2784-27.3398-18.9269
		c-42.5693-24.5755-90.3958-32.0728-135.4823-24.6538c-8.2441,2.2221-14.2961,7.684-17.8792,28.8149
		c-4.4743,26.382,21.6249,22.4979,21.6249,22.4979c23.1545-4.5164,47.3989-3.7577,70.7883,2.7942
		c13.6638,3.6613,34.4457,16.5242,30.1279,32.1631c-3.7637,13.6276-24.1059,22.4798-44.8336,16.9096
		c-9.063-2.451-18.3128-3.6011-27.4963-3.5288c-13.6156,0.4155-23.4556,9.4062-26.6954,27.9899
		c-3.0893,17.7286,12.7786,23.3952,26.7737,23.2146c14.9646-0.1988,26.328,11.7307,26.328,25.8642s-11.5501,25.3102-25.6777,25.3282
		l-0.006,0.006c-7.0758-12.2245-22.5282-16.6386-34.7709-9.5749c-12.2366,7.0698-16.8916,22.8713-9.2316,35.7341
		c7.1541,12.0318,10.1771,28.6102-6.7205,34.8007c-17.7106,6.4856-30.423,2.463-37.5892-9.1292
		c-4.655-7.9128-8.2862-16.5001-10.689-25.5751c-5.5402-20.7335-23.3773-33.9276-37.0592-30.3686
		c-15.7053,4.0768-16.458,28.5078-12.7906,42.1716c6.0159,23.5337,17.4818,44.9115,32.9703,62.7003
		c0,0,16.4159,20.6552-8.6716,29.9771c-20.0893,7.4612-27.8456,4.95-33.8917-1.0779
		c-28.9717-35.3427-46.3872-80.5011-46.3872-129.6581c0-11.2851,0.9515-22.3474,2.7159-33.1387
		c0-0.0241,3.6252-18.945-19.8605-34.7827c-20.5349-13.8625-25.1959,1.0719-25.1959,1.0719C38.2154,80.188,137.7465,0,255.9999,0
		c70.9027,0,135.0668,28.827,181.4239,75.3885C437.4239,75.3885,448.0888,86.8663,425.8195,97.7238 M46.9653,152.8245
		c-5.4559-4.5104-14.0131,0.9153-16.4761,7.5394c-2.469,6.6302-1.9812,10.418,7.5335,16.47
		c5.9678,3.7999,15.0188,6.2327,17.4878-0.3974C57.9795,169.8123,60.0571,163.664,46.9653,152.8245 M133.3746,216.1933
		c-11.3875,0-14.6394,5.6485-16.1268,12.1522c-1.4754,6.5037-1.644,14.1455,11.0744,13.2784
		c7.0638-0.4757,12.7485-4.9922,14.2299-11.4958C144.0335,223.6303,140.4685,216.1933,133.3746,216.1933 M174.1915,103.3363
		c7.0156,0.8551,21.914-9.2316,22.7751-16.2532c0.8551-7.0155-4.1371-13.3928-11.1587-14.2539
		c-7.0156-0.8491-12.068,4.4382-14.2661,11.1586C166.7062,98.7837,167.1699,102.4812,174.1915,103.3363 M203.0247,297.6519
		c-0.4396-7.2745-6.9915-17.2227-13.5795-19.2642c-6.6001-2.0414-17.6865,0.8672-15.8137,9.2678
		c1.5838,7.142,5.3716,16.3917,11.9657,18.4391C192.1912,308.13,203.4824,305.4081,203.0247,297.6519 M247.8282,169.987
		c-5.0645,4.6851-8.3585,15.8317-1.4031,19.3063c6.5218,3.2639,18.4032,2.5654,23.4676-2.1197
		c5.0705-4.6971,8.0995-15.7473-0.1144-18.3247C262.7988,166.6449,252.8926,165.3019,247.8282,169.987"/>
</g>
</svg>
